<svg aria-hidden="true" style="position: absolute; width: 0; height: 0; overflow: hidden;" version="1.1" xmlns="http://www.w3.org/2000/svg" xmlns:xlink="http://www.w3.org/1999/xlink">
<defs>
<symbol id="icon-Vector" viewBox="0 0 40 32">
<path stroke-linejoin="miter" stroke-linecap="butt" stroke-miterlimit="4" stroke-width="4" d="M18.224 24.188l17.008-21.78c0.29-0.251 0.672-0.404 1.089-0.404 0.457 0 0.87 0.183 1.171 0.481l-0-0c0.315 0.31 0.51 0.741 0.51 1.217 0 0.444-0.169 0.848-0.447 1.152l0.001-0.001-0.048 0.052-0.040 0.052-19.524 24.548c-0.304 0.304-0.724 0.492-1.188 0.492-0.225 0-0.439-0.044-0.635-0.124l0.011 0.004c-0.218-0.090-0.404-0.216-0.56-0.372l-13.032-13.104c-0.334-0.311-0.542-0.754-0.542-1.245 0-0.232 0.046-0.453 0.131-0.654l-0.004 0.011c0.175-0.428 0.506-0.761 0.921-0.936l0.011-0.004c0.184-0.077 0.399-0.121 0.624-0.121 0.484 0 0.919 0.206 1.223 0.536l0.001 0.001 0.024 0.028 0.028 0.024 11.872 11.932 1.396-1.788z"></path>
</symbol>
<symbol id="icon-heroicons-solid_menu-1" viewBox="0 0 32 32">
<path d="M4.8 8c0-0.884 0.716-1.6 1.6-1.6h19.2c0.884 0 1.6 0.716 1.6 1.6s-0.716 1.6-1.6 1.6h-19.2c-0.884 0-1.6-0.716-1.6-1.6v0zM4.8 16c0-0.884 0.716-1.6 1.6-1.6h19.2c0.884 0 1.6 0.716 1.6 1.6s-0.716 1.6-1.6 1.6h-19.2c-0.884 0-1.6-0.716-1.6-1.6v0zM4.8 24c0-0.884 0.716-1.6 1.6-1.6h19.2c0.884 0 1.6 0.716 1.6 1.6s-0.716 1.6-1.6 1.6h-19.2c-0.884 0-1.6-0.716-1.6-1.6v0z"></path>
</symbol>
</defs>
</svg>

